<?xml version="1.0" standalone="no"?>
<!DOCTYPE svg PUBLIC "-//W3C//DTD SVG 20010904//EN"
 "http://www.w3.org/TR/2001/REC-SVG-20010904/DTD/svg10.dtd">
<svg version="1.0" xmlns="http://www.w3.org/2000/svg"
 width="16.000000pt" height="16.000000pt" viewBox="0 0 16.000000 16.000000"
 preserveAspectRatio="xMidYMid meet">
<metadata>
Created by potrace 1.11, written by Peter Selinger 2001-2013
</metadata>
<g transform="translate(0.000000,16.000000) scale(0.001600,-0.001600)"
fill="#000000" stroke="none">
<path d="M10 7695 l0 -2305 323 0 c177 0 376 5 442 10 317 27 484 133 540 345
13 52 15 284 15 1955 0 1681 -2 1903 -16 1955 -48 185 -193 291 -454 330 -70
11 -194 15 -472 15 l-378 0 0 -2305z m806 2052 c71 -23 128 -67 153 -119 l21
-44 0 -1888 c0 -1837 -1 -1888 -19 -1924 -44 -85 -119 -126 -262 -142 -101
-12 -359 -10 -359 3 0 4 0 937 0 2073 l0 2066 208 -4 c155 -4 220 -9 258 -21z"/>
<path d="M2226 9988 c-5 -16 -587 -4567 -586 -4586 0 -10 33 -12 148 -10 l147
3 8 50 c4 28 39 307 77 620 39 314 73 591 76 618 l6 47 339 0 c186 0 339 -1
339 -2 0 -8 161 -1269 166 -1300 l6 -38 163 0 c90 0 166 3 168 8 3 4 -132
1033 -299 2287 -167 1254 -304 2288 -304 2298 0 16 -17 17 -225 17 -172 0
-227 -3 -229 -12z m235 -668 c18 -156 53 -434 94 -755 26 -200 103 -814 149
-1180 25 -198 48 -375 50 -392 l5 -33 -315 0 -314 0 5 38 c92 665 210 1616
230 1847 8 99 22 250 30 335 7 85 17 200 20 255 7 114 18 163 23 100 1 -22 12
-119 23 -215z"/>
<path d="M3301 9958 c0 -24 82 -1060 182 -2303 l182 -2260 217 -3 217 -2 6 52
c3 29 69 689 145 1466 131 1322 173 1802 201 2302 6 113 14 232 18 265 l7 60
8 -100 c9 -127 28 -298 70 -650 19 -154 39 -327 45 -385 6 -58 80 -760 166
-1560 l155 -1455 0 -2692 0 -2693 615 0 615 0 0 125 0 125 -407 2 -408 3 -3
2558 -2 2558 195 2257 c107 1241 197 2283 201 2315 l6 57 -150 0 -151 0 -6
-42 c-3 -24 -57 -662 -120 -1419 -112 -1342 -145 -1810 -165 -2328 -6 -140
-12 -257 -15 -259 -3 -3 -5 6 -5 20 0 60 -43 555 -70 813 -36 340 -320 3180
-320 3201 0 12 -36 14 -225 14 l-225 0 -4 -22 c-10 -48 -287 -2800 -296 -2943
-21 -322 -31 -492 -46 -805 -8 -179 -19 -338 -24 -355 -8 -28 -8 -28 -9 -5 -3
67 -41 661 -46 700 -3 25 -10 119 -15 210 -16 250 -22 331 -135 1816 -58 760
-105 1386 -105 1393 0 8 -45 11 -150 11 l-150 0 1 -42z"/>
<path d="M6425 9958 c-3 -7 -4 -497 -3 -1088 l3 -1075 1563 -3 1562 -2 0 1090
0 1090 -1560 0 c-1239 0 -1562 -3 -1565 -12z m1295 -353 l0 -35 115 0 115 0 0
35 0 35 640 0 640 0 0 -370 0 -370 -70 0 -70 0 0 35 0 35 -114 0 -115 0 -3
-32 c-2 -25 -8 -34 -25 -36 -18 -3 -22 2 -25 30 l-3 33 -115 0 -115 0 -3 -33
c-3 -28 -7 -33 -25 -30 -17 2 -23 11 -25 36 l-3 32 -114 0 -114 0 -3 -32 c-2
-25 -8 -34 -25 -36 -18 -3 -22 2 -25 30 l-3 33 -115 0 -115 0 -3 -33 c-3 -28
-7 -33 -25 -30 -17 2 -23 11 -25 36 l-3 32 -114 0 -114 0 -3 -32 c-2 -25 -8
-34 -25 -36 -20 -3 -23 1 -23 33 l0 36 -117 -3 -117 -3 -1 -30 c0 -23 -5 -31
-22 -33 -18 -3 -22 2 -25 30 l-3 33 -115 0 -115 0 -3 -33 c-3 -28 -7 -33 -25
-30 -17 2 -23 11 -25 36 l-3 32 -114 0 -114 0 -3 -32 -3 -33 -60 0 -60 0 -3
355 c-1 195 0 361 3 367 3 10 110 13 490 13 l485 0 0 -35z m-850 -785 l0 -30
115 0 115 0 0 30 c0 25 4 30 25 30 21 0 25 -5 25 -30 l0 -30 120 0 120 0 0 31
c0 26 3 30 23 27 16 -2 23 -11 25 -30 l3 -28 115 0 114 0 0 30 c0 25 4 30 25
30 21 0 25 -5 25 -30 l0 -30 115 0 115 0 0 30 c0 25 4 30 25 30 21 0 25 -5 25
-30 l0 -30 120 0 120 0 0 30 c0 25 4 30 25 30 21 0 25 -5 25 -30 l0 -30 115 0
115 0 0 30 c0 25 4 30 25 30 21 0 25 -5 25 -30 l0 -30 120 0 120 0 0 31 c0 26
3 30 23 27 16 -2 23 -11 25 -30 l3 -28 115 0 114 0 0 30 0 30 70 0 70 0 0
-360 0 -360 -640 0 -640 0 0 30 0 30 -115 0 -115 0 0 -30 0 -30 -490 0 -490 0
0 360 0 360 65 0 65 0 0 -30z"/>
<path d="M7722 9508 l3 -33 113 -3 112 -3 0 36 0 35 -116 0 -115 0 3 -32z"/>
<path d="M7720 9410 l0 -30 115 0 115 0 0 30 0 30 -115 0 -115 0 0 -30z"/>
<path d="M8290 9410 l0 -30 115 0 115 0 0 30 0 30 -115 0 -115 0 0 -30z"/>
<path d="M7439 9345 c-1 -3 -1 -17 -2 -32 l-1 -28 115 0 114 0 0 30 0 30 -112
3 c-62 1 -113 0 -114 -3z"/>
<path d="M7722 9318 l3 -33 113 -3 112 -3 0 36 0 35 -116 0 -115 0 3 -32z"/>
<path d="M8290 9315 l0 -36 113 3 112 3 3 33 3 32 -115 0 -116 0 0 -35z"/>
<path d="M8574 9336 c-3 -8 -4 -23 -2 -33 3 -16 15 -18 118 -18 l115 0 0 30 0
30 -113 3 c-92 2 -113 0 -118 -12z"/>
<path d="M7440 9220 l0 -30 115 0 115 0 0 30 0 30 -115 0 -115 0 0 -30z"/>
<path d="M7720 9220 l0 -30 115 0 115 0 0 30 0 30 -115 0 -115 0 0 -30z"/>
<path d="M8000 9220 l0 -30 120 0 120 0 0 30 0 30 -120 0 -120 0 0 -30z"/>
<path d="M8290 9220 l0 -30 115 0 115 0 0 30 0 30 -115 0 -115 0 0 -30z"/>
<path d="M8570 9220 l0 -30 120 0 120 0 0 30 0 30 -120 0 -120 0 0 -30z"/>
<path d="M7157 9154 c-4 -4 -7 -18 -7 -31 0 -23 1 -23 121 -23 l120 0 -3 28
-3 27 -111 3 c-60 1 -113 -1 -117 -4z"/>
<path d="M7439 9158 c0 -2 -2 -15 -3 -30 l-2 -28 119 0 118 0 -3 28 -3 27
-112 3 c-62 1 -113 1 -114 0z"/>
<path d="M7720 9130 l0 -30 115 0 115 0 0 30 0 30 -115 0 -115 0 0 -30z"/>
<path d="M8007 9154 c-4 -4 -7 -18 -7 -31 0 -23 1 -23 121 -23 l120 0 -3 28
-3 27 -111 3 c-60 1 -113 -1 -117 -4z"/>
<path d="M8290 9130 l0 -30 115 0 115 0 0 30 0 30 -115 0 -115 0 0 -30z"/>
<path d="M8577 9154 c-4 -4 -7 -18 -7 -31 0 -23 1 -23 121 -23 l120 0 -3 28
-3 27 -111 3 c-60 1 -113 -1 -117 -4z"/>
<path d="M8860 9130 l0 -30 115 0 115 0 0 30 0 30 -115 0 -115 0 0 -30z"/>
<path d="M6870 9030 l0 -30 115 0 115 0 0 30 0 30 -115 0 -115 0 0 -30z"/>
<path d="M7150 9030 l0 -30 120 0 120 0 0 30 0 30 -120 0 -120 0 0 -30z"/>
<path d="M7440 9030 l0 -30 115 0 115 0 0 30 0 30 -115 0 -115 0 0 -30z"/>
<path d="M7720 9030 l0 -30 115 0 115 0 0 30 0 30 -115 0 -115 0 0 -30z"/>
<path d="M8000 9030 l0 -30 120 0 120 0 0 30 0 30 -120 0 -120 0 0 -30z"/>
<path d="M8290 9030 l0 -30 115 0 115 0 0 30 0 30 -115 0 -115 0 0 -30z"/>
<path d="M8570 9030 l0 -30 120 0 120 0 0 30 0 30 -120 0 -120 0 0 -30z"/>
<path d="M8860 9030 l0 -30 115 0 115 0 0 30 0 30 -115 0 -115 0 0 -30z"/>
<path d="M6870 8730 l0 -30 115 0 115 0 0 30 0 30 -115 0 -115 0 0 -30z"/>
<path d="M7157 8754 c-4 -4 -7 -18 -7 -31 0 -23 1 -23 121 -23 l120 0 -3 28
-3 27 -111 3 c-60 1 -113 -1 -117 -4z"/>
<path d="M7439 8758 c0 -2 -2 -15 -3 -30 l-2 -28 119 0 118 0 -3 28 -3 27
-112 3 c-62 1 -113 1 -114 0z"/>
<path d="M7720 8730 l0 -30 115 0 115 0 0 30 0 30 -115 0 -115 0 0 -30z"/>
<path d="M8007 8754 c-4 -4 -7 -18 -7 -31 0 -23 1 -23 121 -23 l120 0 -3 28
-3 27 -111 3 c-60 1 -113 -1 -117 -4z"/>
<path d="M8290 8730 l0 -30 115 0 115 0 0 30 0 30 -115 0 -115 0 0 -30z"/>
<path d="M8577 8754 c-4 -4 -7 -18 -7 -31 0 -23 1 -23 121 -23 l120 0 -3 28
-3 27 -111 3 c-60 1 -113 -1 -117 -4z"/>
<path d="M8860 8730 l0 -30 115 0 115 0 0 30 0 30 -115 0 -115 0 0 -30z"/>
<path d="M7150 8630 l0 -30 120 0 120 0 0 30 0 30 -120 0 -120 0 0 -30z"/>
<path d="M7440 8630 l0 -30 115 0 115 0 0 30 0 30 -115 0 -115 0 0 -30z"/>
<path d="M7720 8630 l0 -30 115 0 115 0 0 30 0 30 -115 0 -115 0 0 -30z"/>
<path d="M8000 8630 l0 -30 120 0 120 0 0 30 0 30 -120 0 -120 0 0 -30z"/>
<path d="M8290 8630 l0 -30 115 0 115 0 0 30 0 30 -115 0 -115 0 0 -30z"/>
<path d="M8570 8630 l0 -30 120 0 120 0 0 30 0 30 -120 0 -120 0 0 -30z"/>
<path d="M8860 8630 l0 -30 115 0 115 0 0 30 0 30 -115 0 -115 0 0 -30z"/>
<path d="M7439 8568 c0 -2 -2 -15 -3 -30 l-2 -28 118 0 118 0 0 30 0 30 -115
0 c-63 0 -115 -1 -116 -2z"/>
<path d="M7720 8540 l0 -30 115 0 115 0 0 30 0 30 -115 0 -115 0 0 -30z"/>
<path d="M8007 8564 c-4 -4 -7 -18 -7 -31 0 -23 1 -23 121 -23 l120 0 -3 28
-3 27 -111 3 c-60 1 -113 -1 -117 -4z"/>
<path d="M8290 8540 l0 -30 115 0 115 0 0 30 0 30 -115 0 -115 0 0 -30z"/>
<path d="M8577 8564 c-4 -4 -7 -18 -7 -31 0 -23 1 -23 121 -23 l120 0 -3 28
-3 27 -111 3 c-60 1 -113 -1 -117 -4z"/>
<path d="M7440 8440 l0 -30 115 0 115 0 0 30 0 30 -115 0 -115 0 0 -30z"/>
<path d="M7720 8440 l0 -30 115 0 115 0 0 30 0 30 -115 0 -115 0 0 -30z"/>
<path d="M8290 8440 l0 -30 115 0 115 0 0 30 0 30 -115 0 -115 0 0 -30z"/>
<path d="M8570 8440 l0 -30 120 0 120 0 0 30 0 30 -120 0 -120 0 0 -30z"/>
<path d="M7720 8350 l0 -30 115 0 115 0 0 30 0 30 -115 0 -115 0 0 -30z"/>
<path d="M8290 8350 l0 -30 115 0 115 0 0 30 0 30 -115 0 -115 0 0 -30z"/>
<path d="M7720 8250 l0 -30 115 0 115 0 0 30 0 30 -115 0 -115 0 0 -30z"/>
<path d="M6213 7393 l-210 -298 1980 -3 c1089 -1 1982 0 1984 2 2 2 -90 136
-204 297 l-209 294 -1565 3 -1565 2 -211 -297z m657 142 l0 -45 -85 0 -85 0 0
45 0 45 85 0 85 0 0 -45z m245 0 l0 -40 -87 -3 -88 -3 0 46 0 46 88 -3 87 -3
0 -40z m235 0 l0 -45 -85 0 -85 0 0 45 0 45 85 0 85 0 0 -45z m240 0 l0 -45
-85 0 -85 0 0 45 0 45 85 0 85 0 0 -45z m250 0 l0 -45 -90 0 -90 0 0 45 0 45
90 0 90 0 0 -45z m240 0 l0 -45 -90 0 -90 0 0 45 0 45 90 0 90 0 0 -45z m230
0 l0 -45 -85 0 -85 0 0 45 0 45 85 0 85 0 0 -45z m240 0 l0 -45 -85 0 -85 0 0
45 0 45 85 0 85 0 0 -45z m250 0 l0 -45 -85 0 -85 0 0 45 0 45 85 0 85 0 0
-45z m240 0 l0 -45 -85 0 -85 0 0 45 0 45 85 0 85 0 0 -45z m230 0 l0 -45 -85
0 -85 0 0 45 0 45 85 0 85 0 0 -45z m-2502 -142 l3 -43 -85 0 -86 0 0 45 0 46
83 -3 82 -3 3 -42z m240 0 l3 -43 -85 0 -86 0 0 45 0 46 83 -3 82 -3 3 -42z
m232 2 l0 -45 -85 0 -85 0 0 38 c0 21 3 42 7 45 3 4 42 7 85 7 l78 0 0 -45z
m240 0 l0 -45 -85 0 -85 0 0 38 c0 21 3 42 7 45 3 4 42 7 85 7 l78 0 0 -45z
m250 0 l0 -45 -85 0 -85 0 0 45 0 45 85 0 85 0 0 -45z m240 0 l0 -45 -85 0
-85 0 0 45 0 45 85 0 85 0 0 -45z m230 0 l0 -45 -85 0 -85 0 0 38 c0 21 3 42
7 45 3 4 42 7 85 7 l78 0 0 -45z m240 0 l0 -45 -85 0 -85 0 0 38 c0 21 3 42 7
45 3 4 42 7 85 7 l78 0 0 -45z m250 0 l0 -45 -85 0 -85 0 0 45 0 45 85 0 85 0
0 -45z m240 0 l0 -45 -85 0 -85 0 0 45 0 45 85 0 85 0 0 -45z m238 -2 l3 -43
-90 0 -91 0 0 38 c0 21 3 42 7 46 4 4 43 5 88 4 l80 -3 3 -42z m212 2 l0 -45
-85 0 -85 0 0 45 0 45 85 0 85 0 0 -45z m-2750 -140 l0 -45 -85 0 -85 0 0 45
0 45 85 0 85 0 0 -45z m220 0 l0 -45 -85 0 -85 0 0 45 0 45 85 0 85 0 0 -45z
m240 0 l0 -45 -85 0 -85 0 0 45 0 45 85 0 85 0 0 -45z m230 0 l0 -45 -85 0
-85 0 0 45 0 45 85 0 85 0 0 -45z m240 0 l0 -45 -85 0 -85 0 0 45 0 45 85 0
85 0 0 -45z m710 0 l0 -45 -315 0 -315 0 0 45 0 45 315 0 315 0 0 -45z m260 0
l0 -45 -90 0 -90 0 0 45 0 45 90 0 90 0 0 -45z m240 0 l0 -45 -85 0 -85 0 0
45 0 45 85 0 85 0 0 -45z m240 0 l0 -45 -85 0 -85 0 0 45 0 45 85 0 85 0 0
-45z m240 0 l0 -45 -85 0 -85 0 0 45 0 45 85 0 85 0 0 -45z m210 0 l0 -45 -85
0 -85 0 0 45 0 45 85 0 85 0 0 -45z"/>
<path d="M5974 7036 c-3 -7 -4 -40 -2 -72 l3 -59 2013 -3 2012 -2 0 75 0 75
-2010 0 c-1687 0 -2011 -2 -2016 -14z"/>
<path d="M5975 6698 c-3 -7 -4 -285 -3 -618 l3 -605 2013 -3 2012 -2 0 620 0
620 -2010 0 c-1599 0 -2012 -3 -2015 -12z m3885 -608 l0 -510 -1870 0 -1870 0
0 510 0 510 1870 0 1870 0 0 -510z"/>
<path d="M6460 6515 c-19 -23 -4 -47 27 -43 31 3 44 35 21 49 -19 13 -34 11
-48 -6z"/>
<path d="M6860 6515 c-19 -23 -4 -47 27 -43 31 3 44 35 21 49 -19 13 -34 11
-48 -6z"/>
<path d="M7892 6521 c-23 -14 -10 -46 19 -49 33 -4 48 26 23 45 -21 15 -25 16
-42 4z"/>
<path d="M8292 6521 c-23 -14 -10 -46 21 -49 31 -4 46 20 27 43 -14 17 -29 19
-48 6z"/>
<path d="M9470 6511 c0 -22 21 -33 40 -21 18 11 4 40 -20 40 -13 0 -20 -7 -20
-19z"/>
<path d="M9365 6449 c-52 -30 -60 -82 -19 -120 23 -21 35 -24 104 -24 69 0 81
3 104 24 31 29 34 69 7 102 -17 21 -29 24 -98 27 -46 1 -86 -2 -98 -9z m73
-66 c4 -30 -36 -43 -55 -18 -9 14 -10 22 -1 32 17 21 52 12 56 -14z m86 10 c4
-9 0 -23 -9 -32 -13 -14 -15 -12 -15 17 0 34 14 43 24 15z"/>
<path d="M6421 6416 c-36 -20 -50 -55 -50 -126 -1 -80 13 -110 62 -134 49 -23
100 -15 139 24 26 27 28 34 28 110 0 77 -2 83 -29 111 -25 24 -37 29 -78 29
-26 -1 -59 -7 -72 -14z m99 -61 c11 -13 6 -15 -35 -15 -41 0 -46 2 -35 15 7 8
23 15 35 15 12 0 28 -7 35 -15z m-2 -87 c35 -35 -11 -82 -54 -53 -38 24 -25
65 21 65 12 0 26 -5 33 -12z"/>
<path d="M6804 6396 c-32 -32 -34 -38 -34 -102 0 -51 5 -78 20 -101 38 -63
142 -66 190 -6 16 21 20 41 20 105 0 75 -2 81 -29 109 -25 25 -37 29 -81 29
-46 0 -56 -4 -86 -34z m124 -43 c2 -9 -10 -13 -43 -13 -42 0 -46 2 -35 16 15
18 71 15 78 -3z m-10 -85 c35 -35 -11 -82 -54 -53 -27 18 -28 19 -14 46 12 21
50 25 68 7z"/>
<path d="M7368 6401 c-81 -72 5 -191 117 -160 75 21 100 106 46 160 -25 24
-37 29 -80 29 -42 0 -56 -5 -83 -29z m117 -66 c0 -26 -4 -30 -30 -33 -37 -5
-59 21 -44 50 8 14 19 18 42 16 28 -3 32 -7 32 -33z"/>
<path d="M7841 6414 c-34 -24 -49 -71 -46 -142 3 -67 17 -92 67 -118 35 -18
62 -18 104 2 51 24 67 63 62 147 -3 63 -7 72 -36 98 -26 23 -42 29 -80 29 -28
0 -57 -7 -71 -16z m107 -61 c2 -9 -9 -13 -37 -13 -39 0 -50 8 -34 24 11 11 66
2 71 -11z m-4 -88 c18 -18 11 -41 -15 -56 -39 -21 -78 28 -47 59 16 16 44 15
62 -3z"/>
<path d="M8229 6401 c-27 -28 -29 -34 -29 -114 0 -83 1 -86 30 -111 42 -35 89
-42 134 -21 49 23 66 60 66 141 0 62 -2 68 -34 100 -30 30 -40 34 -86 34 -44
0 -56 -4 -81 -29z m121 -46 c11 -13 6 -15 -34 -15 -43 0 -55 7 -39 23 12 13
60 7 73 -8z m0 -94 c14 -27 13 -28 -14 -46 -43 -29 -89 18 -54 53 18 18 56 14
68 -7z"/>
<path d="M8789 6401 c-81 -82 18 -200 131 -155 39 16 70 54 70 88 0 56 -52 96
-125 96 -38 0 -52 -5 -76 -29z m122 -47 c18 -22 -1 -49 -36 -49 -35 0 -54 27
-36 49 8 9 24 16 36 16 12 0 28 -7 36 -16z"/>
<path d="M9620 6395 c-15 -18 -5 -35 20 -35 10 0 22 5 25 10 7 11 -12 40 -25
40 -4 0 -13 -7 -20 -15z"/>
<path d="M7057 6359 c-37 -21 -2 -68 35 -48 10 5 18 16 18 24 0 21 -32 35 -53
24z"/>
<path d="M8475 6354 c-16 -16 -11 -40 11 -48 23 -9 44 5 44 29 0 28 -34 40
-55 19z"/>
<path d="M6266 6345 c-7 -20 20 -44 44 -38 13 3 20 14 20 29 0 20 -5 24 -29
24 -16 0 -31 -6 -35 -15z"/>
<path d="M6643 6344 c-9 -24 24 -47 49 -33 27 15 18 43 -15 47 -18 2 -29 -2
-34 -14z"/>
<path d="M7693 6344 c-9 -24 24 -47 49 -33 27 15 18 43 -15 47 -18 2 -29 -2
-34 -14z"/>
<path d="M8063 6344 c-8 -21 21 -44 47 -37 13 3 20 14 20 29 0 20 -5 24 -30
24 -19 0 -33 -6 -37 -16z"/>
<path d="M9474 6265 c-4 -9 -2 -21 4 -27 15 -15 44 -1 40 19 -4 23 -36 29 -44
8z"/>
<path d="M7416 6184 c-9 -25 16 -48 43 -39 16 5 21 13 19 28 -4 28 -52 36 -62
11z"/>
<path d="M8847 6193 c-14 -14 -6 -42 14 -48 26 -8 54 16 46 39 -6 16 -48 22
-60 9z"/>
<path d="M9365 6178 c-51 -28 -60 -80 -20 -118 33 -31 132 -40 188 -17 59 25
64 102 7 132 -34 18 -145 20 -175 3z m70 -68 c0 -31 -33 -40 -52 -14 -16 22 1
46 31 42 15 -2 21 -10 21 -28z m82 -17 c-16 -16 -17 -15 -17 17 0 32 1 33 17
17 16 -16 16 -18 0 -34z"/>
<path d="M9619 6124 c-15 -18 0 -38 27 -32 25 5 28 25 6 37 -15 8 -23 7 -33
-5z"/>
<path d="M6454 6035 c-10 -24 19 -49 45 -40 16 5 21 13 19 28 -4 28 -55 37
-64 12z"/>
<path d="M6856 6034 c-9 -22 12 -46 38 -42 15 2 21 10 21 28 0 20 -6 26 -26
28 -18 2 -29 -3 -33 -14z"/>
<path d="M7884 6035 c-9 -23 3 -45 24 -45 25 0 44 23 36 44 -8 20 -53 21 -60
1z"/>
<path d="M8284 6035 c-9 -23 3 -45 24 -45 25 0 44 23 36 44 -8 20 -53 21 -60
1z"/>
<path d="M9474 5995 c-4 -9 -2 -21 4 -27 15 -15 44 -1 40 19 -4 23 -36 29 -44
8z"/>
<path d="M6423 5941 c-44 -28 -53 -49 -53 -131 0 -69 2 -74 34 -106 28 -28 42
-34 76 -34 89 0 119 36 120 142 0 71 -2 80 -28 109 -37 41 -102 50 -149 20z
m95 -53 c19 -19 14 -23 -33 -23 -25 0 -45 1 -45 2 0 1 7 9 16 17 18 19 45 21
62 4z m-7 -88 c38 -21 13 -75 -32 -68 -12 2 -27 11 -33 21 -9 15 -7 22 13 38
27 22 27 22 52 9z"/>
<path d="M6822 5940 c-41 -25 -52 -54 -52 -137 0 -61 2 -67 34 -99 28 -28 42
-34 75 -34 48 0 96 21 111 49 5 11 10 55 10 98 0 67 -3 83 -21 102 -42 45
-104 53 -157 21z m96 -52 c19 -19 14 -23 -33 -23 -25 0 -45 1 -45 2 0 1 7 9
16 17 18 19 45 21 62 4z m-7 -88 c21 -12 25 -40 7 -58 -36 -36 -96 11 -62 49
20 22 28 23 55 9z"/>
<path d="M7384 5941 c-43 -26 -60 -71 -44 -112 43 -103 220 -82 220 27 0 46
-14 70 -50 89 -39 20 -89 19 -126 -4z m100 -63 c24 -39 -30 -74 -65 -42 -23
21 -24 28 -3 49 20 20 53 16 68 -7z"/>
<path d="M7853 5945 c-40 -17 -53 -42 -58 -108 -9 -116 35 -172 128 -164 74 6
100 38 105 125 5 81 -12 123 -58 147 -36 18 -75 19 -117 0z m81 -51 c31 -12
16 -29 -24 -29 -43 0 -47 4 -28 23 13 13 28 15 52 6z m6 -104 c24 -24 17 -48
-16 -56 -45 -11 -75 43 -36 65 24 15 29 14 52 -9z"/>
<path d="M8250 5943 c-14 -9 -30 -24 -37 -33 -15 -19 -17 -164 -3 -191 30 -55
140 -64 188 -15 22 22 27 37 30 93 2 38 -1 80 -7 95 -22 59 -119 87 -171 51z
m94 -59 c9 -8 16 -16 16 -17 0 -1 -20 -2 -45 -2 -47 0 -52 4 -33 23 17 17 44
15 62 -4z m-4 -92 c19 -16 21 -22 11 -40 -20 -38 -81 -23 -81 20 0 15 24 37
41 38 4 0 17 -8 29 -18z"/>
<path d="M8830 5953 c-8 -3 -27 -17 -42 -31 -89 -83 49 -210 152 -140 65 44
65 112 1 155 -32 22 -77 28 -111 16z m74 -69 c9 -8 16 -19 16 -24 0 -15 -31
-40 -49 -40 -21 0 -41 19 -41 40 0 38 46 53 74 24z"/>
<path d="M6270 5875 c-10 -12 -10 -18 0 -30 20 -25 55 -15 55 15 0 30 -35 40
-55 15z"/>
<path d="M6644 5875 c-9 -23 3 -45 24 -45 25 0 46 25 38 45 -7 19 -55 20 -62
0z"/>
<path d="M7044 5876 c-11 -28 4 -48 33 -44 22 2 28 8 28 28 0 20 -6 26 -28 28
-18 2 -29 -2 -33 -12z"/>
<path d="M7694 5875 c-9 -23 3 -45 24 -45 25 0 46 25 38 45 -7 19 -55 20 -62
0z"/>
<path d="M8070 5875 c-10 -12 -10 -18 0 -30 20 -25 55 -15 55 15 0 30 -35 40
-55 15z"/>
<path d="M8470 5875 c-10 -12 -10 -18 0 -30 20 -25 55 -15 55 15 0 30 -35 40
-55 15z"/>
<path d="M9437 5790 c-32 -26 -40 -50 -27 -84 12 -32 66 -58 101 -49 40 10 69
43 69 79 0 64 -88 97 -143 54z m87 -46 c7 -19 -10 -44 -29 -44 -19 0 -38 28
-31 45 7 20 52 19 60 -1z"/>
<path d="M9331 5751 c-19 -12 -6 -41 19 -41 16 0 21 5 18 22 -3 25 -17 32 -37
19z"/>
<path d="M7420 5715 c-10 -12 -10 -18 0 -30 20 -25 55 -15 55 15 0 30 -35 40
-55 15z"/>
<path d="M8844 5715 c-10 -25 4 -45 31 -45 30 0 43 24 25 45 -16 19 -49 19
-56 0z"/>
<path d="M240 3761 l0 -1339 55 21 55 20 2 1266 3 1266 238 3 237 2 0 -1268 0
-1269 55 -20 55 -21 0 1339 0 1339 -350 0 -350 0 0 -1339z"/>
<path d="M1980 4220 l0 -880 52 21 c29 11 56 23 60 25 5 3 8 366 8 807 l0 802
235 3 235 2 0 -808 0 -809 55 -20 55 -21 0 879 0 879 -350 0 -350 0 0 -880z"/>
<path d="M3610 4679 l0 -420 23 7 c12 4 38 12 57 19 l35 12 3 352 2 351 235 0
235 0 0 -349 0 -349 43 -15 c23 -8 50 -18 60 -22 16 -7 17 17 17 414 l0 421
-355 0 -355 0 0 -421z"/>
<path d="M7020 5087 c0 -15 -636 -4989 -646 -5050 l-6 -37 169 2 168 3 8 70
c4 39 42 342 83 675 41 333 78 632 82 665 l7 60 373 3 c293 2 373 0 377 -10 5
-15 185 -1428 185 -1452 0 -14 24 -16 190 -16 l191 0 -6 33 c-3 17 -154 1150
-335 2517 -181 1367 -332 2500 -335 2518 l-6 32 -249 0 c-202 0 -250 -3 -250
-13z m266 -767 c39 -326 83 -682 89 -710 3 -14 9 -63 14 -110 5 -47 32 -263
60 -480 91 -716 161 -1272 161 -1281 0 -5 -148 -9 -345 -9 -269 0 -345 3 -345
13 0 18 62 498 120 929 74 556 107 829 130 1084 11 126 27 297 35 379 8 83 19
220 25 305 11 162 22 218 27 140 2 -25 15 -142 29 -260z"/>
<path d="M8525 5088 c-3 -7 -4 -1154 -3 -2548 l3 -2535 480 0 c466 0 483 1
564 22 175 47 308 138 365 251 57 113 57 99 54 1105 l-3 923 -38 76 c-53 108
-139 177 -286 229 l-75 26 40 13 c127 41 244 133 291 228 l28 57 3 850 c2 629
0 864 -9 905 -43 201 -185 324 -448 387 -92 22 -958 32 -966 11z m889 -264
c76 -23 127 -71 147 -140 12 -41 14 -187 14 -864 0 -759 -1 -819 -18 -866 -31
-88 -72 -140 -135 -171 -57 -28 -58 -28 -289 -31 l-233 -4 0 1052 0 1053 228
-6 c178 -4 240 -9 286 -23z m-12 -2353 c88 -28 158 -90 190 -169 l23 -57 0
-895 0 -895 -23 -47 c-32 -65 -80 -103 -159 -129 -59 -19 -98 -22 -300 -27
l-233 -5 0 1120 c0 616 3 1123 8 1127 4 5 102 6 217 3 177 -4 220 -8 277 -26z"/>
<path d="M3802 4160 c-199 -53 -349 -187 -402 -357 -52 -170 -8 -326 132 -466
l78 -78 0 -1629 0 -1630 355 0 355 0 0 1633 0 1634 46 32 c93 67 163 182 185
305 41 224 -127 466 -381 548 -96 30 -271 35 -368 8z"/>
<path d="M2167 3244 c-218 -53 -384 -220 -419 -421 -27 -162 54 -352 191 -447
l41 -29 0 -1173 0 -1174 350 0 350 0 0 1169 0 1168 62 54 c191 166 231 412
100 615 -73 113 -209 205 -352 238 -80 19 -245 19 -323 0z"/>
<path d="M495 2339 c-139 -21 -252 -77 -345 -169 -129 -129 -176 -284 -134
-445 25 -100 94 -201 178 -264 l46 -35 0 -713 0 -713 350 0 350 0 0 713 0 713
46 35 c84 63 153 164 178 264 43 161 -4 316 -135 446 -131 131 -343 198 -534
168z"/>
</g>
</svg>
